# AST/ASF file generated using VICON BodyLanguage
# -----------------------------------------------
:version 1.10
:name VICON
:units
  mass 1.0
  length 0.45
  angle deg
:documentation
   .ast/.asf automatically generated from VICON data using
   VICON BodyBuilder and BodyLanguage model FoxedUp or BRILLIANT.MOD
:root
   order TX TY TZ RX RY RZ
   axis XYZ
   position 0 0 0  
   orientation 0 0 0 
:bonedata
  begin
     id 1 
     name lhipjoint
     direction 0.627457 -0.725269 0.283342 
     length 2.53237 
     axis 0 0 0  XYZ
  end
  begin
     id 2 
     name lfemur
     direction 0.34202 -0.939693 0  
     length 7.32496  
     axis 0 0 20  XYZ
    dof rx ry rz
    limits (-160.0 20.0)
           (-70.0 70.0)
           (-60.0 70.0)
  end
  begin
     id 3 
     name ltibia
     direction 0.34202 -0.939693 0   
     length 7.69674   
     axis 0 0 20   XYZ
    dof rx
    limits (-10.0 170.0)
  end
  begin
     id 4 
     name lfoot
     direction 0.127289 -0.349722 0.928166   
     length 1.8612   
     axis -90 7.62852e-016 20   XYZ
    dof rx rz
    limits (-45.0 90.0)
           (-70.0 20.0)
  end
  begin
     id 5 
     name ltoes
     direction 1.53561e-011 -4.21864e-011 1   
     length 0.925608   
     axis -90 7.62852e-016 20   XYZ
    dof rx
    limits (-90.0 20.0)
  end
  begin
     id 6 
     name rhipjoint
     direction -0.609094 -0.738725 0.288599   
     length 2.48624  
     axis 0 0 0  XYZ 
  end
  begin
     id 7 
     name rfemur
     direction -0.34202 -0.939693 0   
     length 7.44259   
     axis 0 0 -20   XYZ
    dof rx ry rz
    limits (-160.0 20.0)
           (-70.0 70.0)
           (-70.0 60.0)
  end
  begin
     id 8 
     name rtibia
     direction -0.34202 -0.939693 0   
     length 7.7781   
     axis 0 0 -20   XYZ
    dof rx
    limits (-10.0 170.0)
 end
 begin
     id 9 
     name rfoot
     direction -0.107015 -0.294021 0.949789   
     length 2.14741  
     axis -90 -7.62852e-016 -20   XYZ
    dof rx rz
    limits (-45.0 90.0)
           (-20.0 70.0)
  end
  begin
     id 10 
     name rtoes
     direction -1.53497e-011 -4.21924e-011 1   
     length 1.0706   
     axis -90 -7.62852e-016 -20   XYZ
    dof rx
    limits (-90.0 20.0)
  end
  begin
     id 11 
     name lowerback
     direction -0.0142066 0.998112 -0.0597545   
     length 1.86627   
     axis 0 0 0   XYZ
    dof rx ry rz
    limits (-20.0 45.0)
           (-30.0 30.0)
           (-30.0 30.0)
  end
  begin
     id 12 
     name upperback
     direction 0.00547294 0.999744 0.0219437   
     length 1.86272   
     axis 0 0 0   XYZ
    dof rx ry rz
    limits (-20.0 45.0)
           (-30.0 30.0)
           (-30.0 30.0)
  end
  begin
     id 13 
     name thorax
     direction 0.0116162 0.998704 0.0495538   
     length 1.8703   
     axis 0 0 0   XYZ
    dof rx ry rz
    limits (-20.0 45.0)
           (-30.0 30.0)
           (-30.0 30.0)
  end
  begin
     id 14 
     name lowerneck
     direction -0.0106574 0.998739 0.0490586   
     length 1.8074   
     axis 0 0 0   XYZ
    dof rx ry rz
    limits (-20.0 45.0)
           (-30.0 30.0)
           (-30.0 30.0)
  end
  begin
     id 15 
     name upperneck
     direction 0.030527 0.976587 -0.212944   
     length 1.80681   
     axis 0 0 0   XYZ
    dof rx ry rz
    limits (-20.0 45.0)
           (-30.0 30.0)
           (-30.0 30.0)
  end
  begin
     id 16
     name head
     direction 0.00869225 0.997035 -0.0764531  
     length 1.8313  
     axis 0 0 0   XYZ
    dof rx ry rz
    limits (-20.0 45.0)
           (-30.0 30.0)
           (-30.0 30.0)
  end
  begin
     id 17 
     name lclavicle
     direction 0.915958 0.399447 0.0382386  
     length 3.78965  
     axis 0 0 0   XYZ
    dof ry rz
    limits (-20.0 10.0)
           (0.0 20.0)
  end
  begin
     id 18 
     name lhumerus
     direction 1 -4.48967e-011 3.19303e-027   
     length 4.78095   
     axis -180 -30 -90   XYZ
    dof rx ry rz
    limits (-60.0 90.0)
           (-90.0 90.0)
           (-90.0 90.0)
  end
  begin
     id 19
     name lradius
     direction 1 -4.48967e-011 -3.77974e-027   
     length 3.58615   
     axis -180 -30 -90   XYZ
    dof rx
    limits (-10.0 170.0)
  end
  begin
     id 20
     name lwrist
     direction 1 -4.48927e-011 1.2807e-027   
     length 1.79307   
     axis 1.91374e-015 90 90   XYZ
    dof ry
    limits (-180.0 0.0)
 end
  begin
     id 21 
     name lhand
     direction 1 -4.49036e-011 2.5614e-027   
     length 0.659812   
     axis -1.63439e-015 90 90   XYZ
    dof rx rz
    limits (-90.0 90.0)
           (-45.0 45.0)
  end
  begin
     id 22 
     name lfingers
     direction 1 -4.49052e-011 5.1228e-027   
     length 0.531957   
     axis -3.26879e-015 90 90   XYZ
    dof rx
    limits (0.0 90.0)
  end
  begin
     id 23
     name lthumb
     direction 0.707107 -6.35012e-011 0.707107   
     length 0.763787   
     axis -90 45 2.85299e-015   XYZ
    dof rx rz
    limits (-45.0 45.0)
           (-45.0 45.0)
  end
  begin
     id 24 
     name rclavicle
     direction -0.895351 0.435135 0.0948887   
     length 3.70497  
     axis 0 0 0   XYZ 
    dof ry rz
    limits (-10.0 20.0)
           (-20.0 0.0)
  end
  begin
     id 25 
     name rhumerus
     direction -1 -4.48971e-011 2.38946e-027  
     length 4.48913   
     axis -180 30 90   XYZ
    dof rx ry rz
    limits (-90.0 60.0)
           (-90.0 90.0)
           (-90.0 90.0)
  end
  begin
     id 26 
     name rradius
     direction -1 -4.4895e-011 4.38668e-027   
     length 3.7051   
     axis -180 30 90   XYZ
    dof rx
    limits (-10.0 170.0)
  end
  begin
     id 27 
     name rwrist
     direction -1 -4.49007e-011 1.2807e-027   
     length 1.85255   
     axis 1.91374e-015 -90 -90   XYZ
    dof ry
    limits (-180.0 0.0)
  end
  begin
     id 28
     name rhand
     direction -1 -4.48851e-011 2.5614e-027   
     length 0.449136   
     axis -1.63439e-015 -90 -90   XYZ
    dof rx rz
    limits (-90.0 90.0)
           (-45.0 45.0)
  end
  begin
     id 29
     name rfingers
     direction -1 -4.49128e-011 5.1228e-027   
     length 0.362105   
     axis -3.26879e-015 -90 -90   XYZ
    dof rx
    limits (0.0 90.0)
  end
  begin
     id 30
     name rthumb
     direction -0.707107 -6.34851e-011 0.707107   
     length 0.519912   
     axis -90 -45 -2.85299e-015   XYZ
    dof rx rz
    limits (-45.0 45.0)
           (-45.0 45.0)
  end
:hierarchy
  begin
    root lhipjoint rhipjoint lowerback
    lhipjoint lfemur
    lfemur ltibia
    ltibia lfoot
    lfoot ltoes
    rhipjoint rfemur
    rfemur rtibia
    rtibia rfoot
    rfoot rtoes
    lowerback upperback
    upperback thorax
    thorax lowerneck lclavicle rclavicle
    lowerneck upperneck
    upperneck head
    lclavicle lhumerus
    lhumerus lradius
    lradius lwrist
    lwrist lhand lthumb
    lhand lfingers
    rclavicle rhumerus
    rhumerus rradius
    rradius rwrist
    rwrist rhand rthumb
    rhand rfingers
  end

#!OML:ASF I:\Actors\actors\Patient Classification 2\Patient 1\Session 1\actor1.ASF
:FULLY-SPECIFIED
:DEGREES
1
root -0.916622 18.6714 5.72549 0.408608 -1.54055 -4.67478
lowerback 6.13942 0.849127 2.15131
upperback -1.77771 1.36637 1.10877
thorax -5.26939 0.624847 -0.201128
lowerneck -12.26 -2.104 -1.33764
upperneck 26.2809 -3.49945 2.97322
head 10.5112 -1.3924 0.847208
rclavicle -1.21492e-014 -9.14409e-015
rhumerus -48.5653 -5.43306 -83.6262
rradius 41.4132
rwrist 19.9138
rhand -10.864 -26.3839
rfingers 7.12502
rthumb 15.1515 -55.8092
lclavicle -1.21492e-014 -9.14409e-015
lhumerus -43.5333 2.95103 88.1239
lradius 39.2056
lwrist -11.8277
lhand -4.58176 -30.5132
lfingers 7.12502
lthumb 21.1952 -1.65191
rfemur 7.9941 -1.87183 19.0172
rtibia 1.11319e-014
rfoot -15.0637 -9.82298
rtoes -4.30288
lfemur -5.12713 -5.11939 -8.70835
ltibia 23.4835
lfoot -21.5858 10.7328
ltoes -55.9018
2
root -0.915088 18.6707 5.72969 0.421683 -1.54515 -4.69722
lowerback 6.17777 0.851066 2.19255
upperback -1.78399 1.37351 1.10487
thorax -5.29667 0.626638 -0.229735
lowerneck -12.2647 -2.08357 -1.36585
upperneck 26.3251 -3.48495 3.04528
head 10.53 -1.37949 0.879685
rclavicle 9.78393e-016 1.39149e-015
rhumerus -48.526 -5.45249 -83.5778
rradius 41.3289
rwrist 20.0035
rhand -10.4472 -26.2167
rfingers 7.12502
rthumb 15.5529 -55.6113
lclavicle 9.78393e-016 1.39149e-015
lhumerus -43.6078 2.86921 88.1597
lradius 39.1148
lwrist -11.9645
lhand -4.93826 -30.6674
lfingers 7.12502
lthumb 20.8527 -1.76803
rfemur 7.99263 -1.86734 19.038
rtibia 3.18055e-015
rfoot -15.086 -9.81541
rtoes -4.23859
lfemur -5.15651 -5.05104 -8.6868
ltibia 23.5343
lfoot -21.5756 10.7151
ltoes -55.982
3
root -0.913749 18.6702 5.73488 0.433174 -1.53074 -4.67616
lowerback 6.1908 0.845181 2.17342
upperback -1.78133 1.36409 1.09822
thorax -5.30172 0.622449 -0.225129
lowerneck -12.2742 -2.07328 -1.34822
upperneck 26.3456 -3.47939 3.06039
head 10.5393 -1.37307 0.882761
rclavicle -2.15914e-014 -1.76918e-014
rhumerus -48.5496 -5.40996 -83.5649
rradius 41.3807
rwrist 19.9763
rhand -9.66295 -26.5075
rfingers 7.12502
rthumb 16.3082 -55.8418
lclavicle -2.15914e-014 -1.76918e-014
lhumerus -43.6635 2.8244 88.2025
lradius 39.0547
lwrist -11.9752
lhand -5.22069 -30.7582
lfingers 7.12502
lthumb 20.5814 -1.82926
rfemur 8.0019 -1.88205 19.0116
rtibia 2.06736e-014
rfoot -15.0931 -9.81636
rtoes -4.31403
lfemur -5.17195 -4.97627 -8.71285
ltibia 23.5361
lfoot -21.4584 10.7252
ltoes -56.1632
4
root -0.914046 18.6704 5.73942 0.454998 -1.49915 -4.64522
lowerback 6.17606 0.835119 2.12578
upperback -1.76329 1.34572 1.09584
thorax -5.27572 0.615241 -0.198584
lowerneck -12.3503 -2.08095 -1.33337
upperneck 26.3773 -3.48595 3.02841
head 10.5653 -1.37715 0.867332
rclavicle 1.27952e-014 -6.55989e-015
rhumerus -48.5468 -5.38688 -83.5443
rradius 41.436
rwrist 19.9245
rhand -9.93592 -27.0001
rfingers 7.12502
rthumb 16.0454 -56.3557
lclavicle 1.27952e-014 -6.55989e-015
lhumerus -43.6729 2.85261 88.2021
lradius 39.0191
lwrist -11.9838
lhand -5.19774 -30.8191
lfingers 7.12502
lthumb 20.6034 -1.89258
rfemur 7.99925 -1.91459 18.9806
rtibia -2.70347e-014
rfoot -15.0743 -9.81564
rtoes -4.44894
lfemur -5.20948 -4.90504 -8.73479
ltibia 23.5441
lfoot -21.3591 10.6845
ltoes -56.2828
5
root -0.913989 18.6698 5.74346 0.471636 -1.50049 -4.62868
lowerback 6.17515 0.834574 2.10398
upperback -1.74312 1.34248 1.09144
thorax -5.25449 0.614574 -0.190426
lowerneck -12.4535 -2.08736 -1.33043
upperneck 26.4497 -3.49393 3.01336
head 10.6122 -1.38032 0.859657
rclavicle -5.54423e-016 2.18663e-015
rhumerus -48.478 -5.37352 -83.5255
rradius 41.3901
rwrist 19.9098
rhand -11.3794 -27.1535
rfingers 7.12502
rthumb 14.655 -56.6156
lclavicle -5.54423e-016 2.18663e-015
lhumerus -43.6547 2.93525 88.159
lradius 38.9715
lwrist -12.079
lhand -5.09962 -30.8119
lfingers 7.12502
lthumb 20.6977 -1.89557
rfemur 7.99177 -1.91383 18.9639
rtibia 1.90833e-014
rfoot -15.0815 -9.81191
rtoes -4.56245
lfemur -5.22079 -4.82255 -8.73905
ltibia 23.5442
lfoot -21.337 10.5878
ltoes -56.2413
6
root -0.912725 18.6687 5.74841 0.473499 -1.52647 -4.63262
lowerback 6.19752 0.834451 2.09647
upperback -1.7331 1.34191 1.08669
thorax -5.25677 0.614469 -0.191388
lowerneck -12.5038 -2.08116 -1.23495
upperneck 26.5294 -3.48616 2.92358
head 10.6479 -1.37648 0.811955
rclavicle 8.89872e-015 5.56597e-015
rhumerus -48.4155 -5.35888 -83.5303
rradius 41.3155
rwrist 19.9044
rhand -11.7682 -26.9721
rfingers 7.12502
rthumb 14.2804 -56.4611
lclavicle 8.89872e-015 5.56597e-015
lhumerus -43.6663 3.02575 88.0917
lradius 38.9309
lwrist -12.1908
lhand -5.06219 -30.7442
lfingers 7.12502
lthumb 20.7337 -1.83185
rfemur 7.99948 -1.88788 18.9657
rtibia 1.59028e-015
rfoot -15.0942 -9.83367
rtoes -4.70599
lfemur -5.20205 -4.80497 -8.73614
ltibia 23.5514
lfoot -21.3743 10.5438
ltoes -56.1625
7
root -0.910809 18.6676 5.75352 0.452295 -1.57391 -4.67441
lowerback 6.25954 0.8376 2.12212
upperback -1.73565 1.3511 1.10411
thorax -5.29447 0.618072 -0.18972
lowerneck -12.456 -2.07167 -1.15626
upperneck 26.5399 -3.46773 2.83518
head 10.6386 -1.37115 0.769732
rclavicle 1.2424e-016 -5.1684e-015
rhumerus -48.4036 -5.36159 -83.5099
rradius 41.2819
rwrist 19.9376
rhand -10.6962 -26.5656
rfingers 7.12502
rthumb 15.3132 -55.9786
lclavicle 1.2424e-016 -5.1684e-015
lhumerus -43.7089 3.12476 88.0379
lradius 38.8658
lwrist -12.3327
lhand -5.08756 -30.8185
lfingers 7.12502
lthumb 20.7093 -1.90347
rfemur 8.03641 -1.83998 19.0056
rtibia 1.59028e-015
rfoot -15.0923 -9.85255
rtoes -4.75522
lfemur -5.15687 -4.81097 -8.70204
ltibia 23.5739
lfoot -21.4365 10.553
ltoes -56.1261
8
root -0.909218 18.6667 5.7564 0.440288 -1.60668 -4.72662
lowerback 6.34688 0.846351 2.17228
upperback -1.74929 1.37183 1.13825
thorax -5.35792 0.626528 -0.186172
lowerneck -12.3547 -2.04955 -1.15938
upperneck 26.4678 -3.42899 2.82121
head 10.5907 -1.35721 0.771079
rclavicle -5.30507e-015 1.98785e-016
rhumerus -48.4202 -5.3242 -83.4741
rradius 41.3134
rwrist 19.9361
rhand -9.96865 -26.3661
rfingers 7.12502
rthumb 16.0138 -55.7243
lclavicle -5.30507e-015 1.98785e-016
lhumerus -43.7512 3.17775 88.055
lradius 38.8365
lwrist -12.4083
lhand -5.10222 -30.8963
lfingers 7.12502
lthumb 20.6952 -1.97976
rfemur 8.0633 -1.8068 19.0563
rtibia 7.95139e-015
rfoot -15.1048 -9.83228
rtoes -4.56483
lfemur -5.13623 -4.74394 -8.64572
ltibia 23.6052
lfoot -21.4572 10.5104
ltoes -56.1255
9
root -0.908442 18.6666 5.75806 0.473587 -1.61009 -4.74422
lowerback 6.39192 0.860576 2.19998
upperback -1.76139 1.39565 1.15258
thorax -5.39559 0.637177 -0.190253
lowerneck -12.3107 -2.03734 -1.19338
upperneck 26.3966 -3.40833 2.84921
head 10.5563 -1.34893 0.789798
rclavicle 1.51418e-015 1.98785e-016
rhumerus -48.4223 -5.33091 -83.4493
rradius 41.3777
rwrist 19.8619
rhand -9.79015 -26.4428
rfingers 7.12502
rthumb 16.1857 -55.787
lclavicle 1.51418e-015 1.98785e-016
lhumerus -43.7499 3.21719 88.0701
lradius 38.8392
lwrist -12.4612
lhand -5.05483 -30.8836
lfingers 7.12502
lthumb 20.7407 -1.97203
rfemur 8.03359 -1.80378 19.0741
rtibia -2.38542e-014
rfoot -15.11 -9.8014
rtoes -4.40166
lfemur -5.18234 -4.65386 -8.61839
ltibia 23.6337
lfoot -21.4156 10.4785
ltoes -56.1854
10
root -0.906869 18.6663 5.76086 0.478594 -1.61749 -4.74367
lowerback 6.43323 0.875827 2.22895
upperback -1.74673 1.41878 1.13992
thorax -5.40234 0.647407 -0.22276
lowerneck -12.3534 -2.05486 -1.22446
upperneck 26.3902 -3.43189 2.87318
head 10.564 -1.35951 0.800235
rclavicle 1.19007e-014 1.41137e-014
rhumerus -48.382 -5.38844 -83.469
rradius 41.4216
rwrist 19.7721
rhand -9.82204 -26.4824
rfingers 7.12502
rthumb 16.155 -55.8292
lclavicle 1.19007e-014 1.41137e-014
lhumerus -43.7228 3.2477 88.035
lradius 38.8574
lwrist -12.4847
lhand -4.90822 -30.8492
lfingers 7.12502
lthumb 20.8816 -1.95309
rfemur 8.03402 -1.79621 19.0693
rtibia -1.43125e-014
rfoot -15.1071 -9.78457
rtoes -4.54236
lfemur -5.18914 -4.64731 -8.62617
ltibia 23.6551
lfoot -21.4012 10.4976
ltoes -56.2289
